<?xml version="1.0" standalone="no"?>
<!DOCTYPE svg PUBLIC "-//W3C//DTD SVG 20010904//EN"
 "http://www.w3.org/TR/2001/REC-SVG-20010904/DTD/svg10.dtd">
<svg version="1.0" xmlns="http://www.w3.org/2000/svg"
 width="108.000000pt"
 height="100.000000pt"
 viewBox="0 0 788.000000 234.000000"
 preserveAspectRatio="xMidYMid meet">

<g transform="translate(0.000000,234.000000) scale(0.100000,-0.100000)"
fill="#000000" stroke="none">
<path d="M500 1854 c-36 -7 -101 -31 -145 -53 -336 -167 -453 -596 -247 -910
138 -209 391 -320 633 -278 48 8 114 27 148 42 l61 28 28 -31 c70 -75 199 -60
266 31 20 27 21 42 24 321 3 325 -3 382 -56 497 -57 126 -178 247 -307 309
-121 58 -269 74 -405 44z m242 -350 c95 -32 172 -132 184 -240 20 -162 -117
-314 -280 -314 -93 0 -152 24 -213 87 -58 59 -83 121 -83 204 0 114 79 226
187 265 51 18 150 17 205 -2z"/>
<path d="M1980 1863 c-54 -9 -158 -46 -210 -76 -82 -45 -208 -178 -248 -259
-94 -192 -94 -388 -1 -577 70 -142 211 -265 363 -315 128 -43 303 -41 419 5
49 19 52 20 64 3 16 -22 17 -108 2 -136 -19 -35 -74 -49 -228 -57 -211 -12
-314 -51 -406 -153 -47 -53 -62 -95 -51 -153 14 -72 98 -135 179 -135 35 0 56
8 97 36 84 57 108 64 233 64 182 0 296 36 394 125 97 87 139 209 131 380 -6
110 -31 193 -75 246 l-26 30 26 47 c98 182 96 412 -6 607 -49 93 -165 203
-267 254 -122 60 -270 84 -390 64z m235 -370 c98 -51 154 -146 155 -258 0
-172 -134 -295 -309 -283 -110 8 -196 70 -242 173 -62 138 6 307 151 375 60
28 185 24 245 -7z"/>
<path d="M3353 1860 c-377 -80 -600 -475 -473 -837 62 -177 221 -330 404 -389
95 -31 244 -37 336 -15 184 45 337 167 421 336 117 237 78 512 -100 707 -122
132 -263 198 -441 204 -58 2 -124 -1 -147 -6z m243 -364 c108 -50 168 -144
168 -261 -1 -247 -292 -377 -478 -214 -65 58 -96 126 -96 213 0 84 20 134 77
196 80 90 219 117 329 66z"/>
<path d="M4722 1855 c-186 -41 -371 -198 -443 -376 -71 -176 -63 -354 22 -529
70 -142 209 -263 363 -314 329 -111 694 75 802 408 38 116 38 266 0 382 -101
313 -423 498 -744 429z m258 -356 c106 -48 170 -147 170 -264 -1 -166 -123
-285 -293 -285 -108 1 -200 60 -255 165 -33 65 -36 167 -5 235 26 56 94 123
153 149 62 28 168 28 230 0z"/>
<path d="M6205 1855 c-231 -51 -428 -227 -496 -445 -29 -93 -39 -199 -38 -415
0 -257 9 -294 83 -349 41 -31 149 -30 194 2 64 46 66 57 72 367 5 271 6 281
29 325 63 119 172 190 293 190 53 0 98 21 135 63 37 42 47 82 38 143 -17 114
-132 158 -310 119z"/>
<path d="M7101 1854 c-110 -24 -206 -78 -297 -169 -93 -91 -143 -178 -175
-303 -71 -277 73 -584 331 -709 108 -52 172 -67 290 -67 95 0 203 24 273 61
27 13 30 12 62 -16 91 -79 219 -56 273 49 23 45 23 47 19 345 -5 333 -8 353
-74 485 -50 99 -160 211 -260 263 -138 72 -294 93 -442 61z m264 -358 c186
-88 225 -330 76 -469 -146 -136 -380 -86 -462 98 -62 139 2 303 146 371 70 33
170 33 240 0z"/>
</g>
</svg>
